<?xml version="1.0" encoding="utf-8"?>
<!-- Generator: Adobe Illustrator 23.0.4, SVG Export Plug-In . SVG Version: 6.00 Build 0)  -->
<svg version="1.2" fill="#2d635e" baseProfile="tiny" id="Layer_1" xmlns="http://www.w3.org/2000/svg" xmlns:xlink="http://www.w3.org/1999/xlink"
	 x="0px" y="0px" viewBox="0 0 885.22 208.35" xml:space="preserve">
<path d="M305.66,132.96h-99.69c3.52,16.25,14.63,26.28,29.26,26.28c10.02,0,21.67-2.44,28.98-15.71l38.46,7.86
	c-11.65,28.71-36.3,42.53-67.45,42.53c-39.28,0-71.79-28.99-71.79-72.06c0-42.8,32.5-72.05,72.06-72.05
	c38.47,0,69.35,27.63,70.16,72.05V132.96z M206.78,106.41h56.07c-4.06-14.63-14.9-21.4-27.36-21.4
	C223.31,85.01,210.85,92.6,206.78,106.41"/>
<rect x="315.41" y="12.37" width="43.34" height="177.48"/>
<path d="M410.49,145.69c1.9,11.65,12.46,15.98,24.11,15.98c11.38,0,17.61-4.88,17.61-10.84c0-4.6-3.52-8.13-13.54-10.02l-27.63-5.42
	c-25.19-4.6-39.55-18.15-39.55-39.55c0-27.9,24.11-46.05,58.51-46.05c33.86,0,56.34,15.44,61.76,39.01l-39.55,7.86
	c-1.35-8.4-9.48-15.98-22.75-15.98c-11.65,0-15.44,5.69-15.44,10.56c0,3.79,1.62,7.59,10.29,9.48l31.96,6.5
	c25.73,5.42,37.65,20.86,37.65,40.91c0,30.07-26.01,45.78-61.76,45.78c-31.97,0-59.32-11.65-63.93-39.55L410.49,145.69z"/>
<path d="M647.79,121.85c0,43.07-34.13,71.79-74.49,71.79c-41.18,0-75.31-28.71-75.31-71.79c0-42.8,34.13-71.51,75.31-71.51
	C613.66,50.34,647.79,79.05,647.79,121.85 M606.08,121.85c0-21.13-15.98-35.21-32.78-35.21c-17.61,0-33.59,14.09-33.59,35.21
	c0,21.4,15.98,35.22,33.59,35.22C590.09,157.07,606.08,143.25,606.08,121.85"/>
<path d="M803.98,160.14c0-18.87,15.29-34.16,34.16-34.16c18.87,0,34.16,15.3,34.16,34.16s-15.29,34.16-34.16,34.16
	C819.27,194.3,803.98,179,803.98,160.14"/>
<path d="M154.71,189.84h-43.07v-69.75c0,0,1.08-26.57-25.71-26.57s-25.71,26.57-25.71,26.57v69.75H17.16v-69.92
	c0-1.74,0.23-17.46,8.12-33.49c11.43-23.2,32.97-35.98,60.65-35.98s49.22,12.78,60.65,35.98c7.9,16.02,8.12,31.74,8.12,33.49V189.84
	z"/>
<path d="M793.75,189.84h-43.07v-69.75c0,0,1.08-26.57-25.71-26.57c-26.79,0-25.71,26.57-25.71,26.57v69.75H656.2v-69.92
	c0-1.74,0.23-17.46,8.12-33.49c11.43-23.2,32.97-35.98,60.65-35.98c27.68,0,49.22,12.78,60.65,35.98
	c7.9,16.02,8.12,31.74,8.12,33.49V189.84z"/>
</svg>
